<?xml version="1.0" encoding="UTF-8" standalone="no"?>
<!-- Uploaded to: SVG Repo, www.svgrepo.com, Generator: SVG Repo Mixer Tools -->

<svg
   width="800px"
   height="800px"
   viewBox="0 0 64 64"
   stroke-width="3"
   stroke="#000000"
   fill="none"
   version="1.1"
   id="svg16"
   sodipodi:docname="about.svg"
   inkscape:version="1.2.2 (732a01da63, 2022-12-09)"
   xmlns:inkscape="http://www.inkscape.org/namespaces/inkscape"
   xmlns:sodipodi="http://sodipodi.sourceforge.net/DTD/sodipodi-0.dtd"
   xmlns="http://www.w3.org/2000/svg"
   xmlns:svg="http://www.w3.org/2000/svg">
  <defs
     id="defs20" />
  <sodipodi:namedview
     id="namedview18"
     pagecolor="#505050"
     bordercolor="#eeeeee"
     borderopacity="1"
     inkscape:showpageshadow="0"
     inkscape:pageopacity="0"
     inkscape:pagecheckerboard="0"
     inkscape:deskcolor="#505050"
     showgrid="false"
     inkscape:zoom="0.71064232"
     inkscape:cx="319.42933"
     inkscape:cy="388.38104"
     inkscape:window-width="1920"
     inkscape:window-height="991"
     inkscape:window-x="-9"
     inkscape:window-y="-9"
     inkscape:window-maximized="1"
     inkscape:current-layer="svg16" />
  <circle
     cx="32"
     cy="18.14"
     r="11.14"
     id="circle12" />
  <path
     d="M54.55,56.85A22.55,22.55,0,0,0,32,34.3h0A22.55,22.55,0,0,0,9.45,56.85Z"
     id="path14" />
  <path
     style="fill:#ffffff;stroke-width:2.98507"
     d="m 99.833524,708.20896 c 1.234206,-39.35492 6.859356,-69.89745 18.738136,-101.7413 33.01985,-88.51744 104.94324,-155.86171 195.89503,-183.42307 73.38832,-22.23906 153.75339,-14.66032 223.34321,21.06214 14.4632,7.42438 37.43518,22.35815 50.2498,32.66672 33.44705,26.90607 63.04889,64.06662 81.73583,102.60674 19.79427,40.82389 28.73294,78.89367 30.36539,129.32628 l 0.65221,20.14925 H 399.99957 99.186022 Z M 662.26257,684.32836 C 656.58483,621.64551 625.13106,558.90678 577.87912,516.01429 544.18729,485.43088 502.24826,463.39841 459.4906,453.81947 c -22.96196,-5.14413 -31.41477,-6.00876 -58.99309,-6.03431 -26.24771,-0.0243 -33.39233,0.58964 -53.23383,4.57455 -96.52283,19.38538 -175.34577,93.10445 -201.47017,188.42481 -3.60182,13.14196 -6.93342,31.14959 -8.05608,43.54384 l -0.69849,7.71144 H 400 662.96105 Z"
     id="path348"
     transform="scale(0.08)" />
  <path
     style="fill:#ffffff;stroke-width:2.98507"
     d="m 98.841521,710.4604 c 0.975472,-29.12638 3.270629,-47.91249 8.640259,-70.72141 9.52952,-40.47916 30.75461,-83.72048 57.35773,-116.85342 8.81939,-10.98413 29.3949,-32.14415 40.13561,-41.2758 86.28388,-73.35767 204.89986,-92.19146 309.62626,-49.16229 36.95395,15.18334 68.03332,36.07799 97.3981,65.48071 35.09509,35.14044 59.03093,73.56764 73.98048,118.77015 9.77359,29.55212 15.51258,68.00225 15.51258,103.93144 v 9.22097 H 399.84233 98.192118 Z m 600.645569,8.69383 C 699.41257,676.99183 691.77476,634.49985 678.199,600.72032 642.28827,511.36637 566.82122,444.75647 474.93695,421.31399 391.08757,399.92146 307.1249,414.00968 234.82587,461.60257 c -55.87267,36.77978 -97.46318,91.4129 -119.37111,156.80539 -8.73395,26.06975 -13.18433,53.95102 -14.59056,91.40859 l -0.67741,18.04415 h 299.65785 299.65785 z"
     id="path350"
     transform="scale(0.08)" />
  <path
     style="fill:#ffffff;stroke-width:2.98507"
     d="m 102.88294,709.70149 c 1.8657,-43.77282 7.61343,-73.94593 20.08563,-105.44085 29.61521,-74.78466 82.89999,-130.96044 156.13591,-164.60719 101.80181,-46.77077 225.43619,-29.23174 312.43195,44.32225 50.59151,42.77459 86.05907,102.35159 98.98616,166.27306 4.08212,20.18519 6.98985,47.77116 6.98985,66.31365 v 9.30824 H 399.8531 102.19377 Z M 664.67122,689.801 c -0.003,-2.32588 -0.89428,-10.27364 -1.98071,-17.6617 -10.94546,-74.43238 -53.03079,-141.01526 -115.24866,-182.33396 -30.57371,-20.30391 -59.55884,-32.20865 -97.9385,-40.2252 -11.24269,-2.34832 -14.70279,-2.58202 -44.52823,-3.00753 -26.04499,-0.37157 -34.33018,-0.15962 -42.57364,1.08911 -57.0617,8.64379 -106.12882,32.77541 -146.86323,72.22857 -38.15072,36.95072 -64.60774,84.4674 -75.07598,134.83608 -2.61658,12.58985 -5.13889,29.86812 -5.13889,35.20233 v 4.10115 H 400 664.67662 l -0.005,-4.22885 z"
     id="path352"
     transform="scale(0.08)" />
  <path
     style="fill:#ffffff;stroke-width:2.98507"
     d=""
     id="path354"
     transform="scale(0.08)" />
  <path
     style="fill:#ffffff;stroke-width:2.98507"
     d=""
     id="path356"
     transform="scale(0.08)" />
  <path
     style="fill:#ffffff;stroke-width:2.98507"
     d="m 384.57711,383.48201 c -61.13442,-6.37748 -113.26226,-47.54194 -133.25036,-105.22553 -6.57076,-18.96253 -7.9502,-27.8244 -7.99947,-51.39081 -0.047,-22.49408 1.16359,-30.94213 7.02837,-49.04551 8.13423,-25.10873 26.29826,-52.59259 45.91508,-69.47377 54.30952,-46.735862 130.93877,-51.980185 190.10963,-13.010652 24.20781,15.943102 42.37963,36.708762 55.0197,62.873222 6.51695,13.48984 9.88292,23.20733 13.07475,37.74661 1.88603,8.59118 2.19536,12.98452 2.17636,30.9101 -0.025,23.5712 -1.40463,32.45994 -7.96248,51.30016 -23.88891,68.63108 -92.66807,112.76909 -164.11158,105.31618 z m 39.7925,-38.19067 c 36.46903,-7.89934 66.28357,-30.60046 83.00613,-63.20179 9.3497,-18.22762 13.30417,-35.17976 13.23038,-56.71642 C 520.37952,159.24125 466.57613,105.97815 400,105.97815 c -57.67443,0 -106.79726,40.0528 -118.44518,96.57546 -2.71081,13.15451 -2.95591,33.26016 -0.55972,45.91386 8.23462,43.48499 38.94743,78.99158 80.19893,92.71672 9.17597,3.05301 14.37592,4.23334 26.36816,5.98525 5.77681,0.84392 29.93045,-0.38851 36.80742,-1.8781 z"
     id="path362"
     transform="scale(0.08)" />
</svg>
