<?xml version="1.0" encoding="UTF-8" standalone="no"?>
<!-- Uploaded to: SVG Repo, www.svgrepo.com, Generator: SVG Repo Mixer Tools -->

<svg
   width="800px"
   height="800px"
   viewBox="0 0 24 24"
   version="1.1"
   id="svg389"
   sodipodi:docname="contact.svg"
   inkscape:version="1.2.2 (732a01da63, 2022-12-09)"
   xmlns:inkscape="http://www.inkscape.org/namespaces/inkscape"
   xmlns:sodipodi="http://sodipodi.sourceforge.net/DTD/sodipodi-0.dtd"
   xmlns="http://www.w3.org/2000/svg"
   xmlns:svg="http://www.w3.org/2000/svg">
  <defs
     id="defs393" />
  <sodipodi:namedview
     id="namedview391"
     pagecolor="#505050"
     bordercolor="#eeeeee"
     borderopacity="1"
     inkscape:showpageshadow="0"
     inkscape:pageopacity="0"
     inkscape:pagecheckerboard="0"
     inkscape:deskcolor="#505050"
     showgrid="false"
     inkscape:zoom="1.005"
     inkscape:cx="400"
     inkscape:cy="400"
     inkscape:window-width="1920"
     inkscape:window-height="991"
     inkscape:window-x="-9"
     inkscape:window-y="-9"
     inkscape:window-maximized="1"
     inkscape:current-layer="svg389" />
  <title
     id="title379" />
  <g
     id="Complete">
    <g
       id="mail">
      <g
         id="g385">
        <polyline
           fill="none"
           points="4 8.2 12 14.1 20 8.2"
           stroke="#000000"
           stroke-linecap="round"
           stroke-linejoin="round"
           stroke-width="2"
           id="polyline381" />
        <rect
           fill="none"
           height="14"
           rx="2"
           ry="2"
           stroke="#000000"
           stroke-linecap="round"
           stroke-linejoin="round"
           stroke-width="2"
           width="18"
           x="3"
           y="6.5"
           id="rect383" />
      </g>
    </g>
  </g>
  <path
     style="fill:#000000;stroke-width:0.995025"
     d="m 146.26866,713.99424 c -33.15673,-7.0022 -61.148498,-31.17661 -72.725548,-62.80765 -6.661276,-18.20007 -6.209351,-5.09162 -6.61876,-191.98261 -0.387062,-176.68952 -0.179307,-187.81032 3.773496,-201.99005 4.29628,-15.41187 12.754345,-30.41452 23.686107,-42.01368 15.801685,-16.7664 37.477105,-27.72929 60.342415,-30.51969 6.27514,-0.7658 79.97726,-1.09195 246.26865,-1.0898 202.25583,0.003 238.70987,0.21614 246.76617,1.44544 39.24803,5.9888 70.87465,33.98222 81.54552,72.17773 3.91336,14.00755 4.14279,26.3558 3.7624,202.48756 -0.40243,186.34338 0.0485,173.28674 -6.61222,191.4851 -11.65989,31.85736 -39.70941,55.94226 -73.20149,62.85489 -8.61742,1.7786 -18.77593,1.85049 -253.75291,1.79583 -231.53135,-0.0539 -245.23377,-0.15358 -253.23383,-1.84307 z m 501.49253,-66.8428 c 7.0863,-3.36638 12.48908,-8.85511 16.05029,-16.30567 l 2.85361,-5.97015 7.9e-4,-154.97512 c 4.3e-4,-85.23632 -0.26088,-154.97513 -0.58069,-154.97513 -0.31981,0 -55.95363,40.85821 -123.63071,90.79602 -67.67709,49.93781 -125.7198,92.13931 -128.98381,93.7811 -7.76089,3.90371 -18.17292,4.17318 -25.90848,0.67051 -2.73632,-1.23899 -60.94527,-43.54961 -129.35323,-94.02359 l -124.37811,-91.77085 -0.25188,155.19352 -0.25188,155.19353 2.92832,6.02516 c 4.40731,9.06824 8.93479,13.44296 17.60768,17.01355 l 5.8384,2.40365 241.29353,-0.22837 241.29354,-0.22836 z M 483.81092,367.49724 c 46.11792,-34.02078 100.60036,-74.19695 121.07209,-89.28036 32.48851,-23.93728 36.91673,-27.5096 34.82588,-28.09458 -3.10477,-0.86865 -476.27477,-0.88003 -479.36894,-0.0115 -2.0065,0.5632 15.15572,13.58776 118.40796,89.86081 66.41502,49.06116 120.85754,89.24252 120.9834,89.29189 0.12585,0.0494 37.96168,-27.74544 84.07961,-61.76624 z"
     id="path395"
     transform="scale(0.03)" />
</svg>
