<?xml version="1.0" encoding="UTF-8" standalone="no"?>
<!-- Uploaded to: SVG Repo, www.svgrepo.com, Generator: SVG Repo Mixer Tools -->

<svg
   fill="#000000"
   width="800px"
   height="800px"
   viewBox="0 0 32 32"
   version="1.1"
   id="svg4"
   sodipodi:docname="home.svg"
   inkscape:version="1.2.2 (732a01da63, 2022-12-09)"
   xmlns:inkscape="http://www.inkscape.org/namespaces/inkscape"
   xmlns:sodipodi="http://sodipodi.sourceforge.net/DTD/sodipodi-0.dtd"
   xmlns="http://www.w3.org/2000/svg"
   xmlns:svg="http://www.w3.org/2000/svg">
  <defs
     id="defs8" />
  <sodipodi:namedview
     id="namedview6"
     pagecolor="#505050"
     bordercolor="#eeeeee"
     borderopacity="1"
     inkscape:showpageshadow="0"
     inkscape:pageopacity="0"
     inkscape:pagecheckerboard="0"
     inkscape:deskcolor="#505050"
     showgrid="false"
     inkscape:zoom="1.005"
     inkscape:cx="400"
     inkscape:cy="400"
     inkscape:window-width="1920"
     inkscape:window-height="991"
     inkscape:window-x="-9"
     inkscape:window-y="-9"
     inkscape:window-maximized="1"
     inkscape:current-layer="svg4" />
  <path
     d="M31.772 16.043l-15.012-15.724c-0.189-0.197-0.449-0.307-0.721-0.307s-0.533 0.111-0.722 0.307l-15.089 15.724c-0.383 0.398-0.369 1.031 0.029 1.414 0.399 0.382 1.031 0.371 1.414-0.029l1.344-1.401v14.963c0 0.552 0.448 1 1 1h6.986c0.551 0 0.998-0.445 1-0.997l0.031-9.989h7.969v9.986c0 0.552 0.448 1 1 1h6.983c0.552 0 1-0.448 1-1v-14.968l1.343 1.407c0.197 0.204 0.459 0.308 0.722 0.308 0.249 0 0.499-0.092 0.692-0.279 0.398-0.382 0.411-1.015 0.029-1.413zM26.985 14.213v15.776h-4.983v-9.986c0-0.552-0.448-1-1-1h-9.965c-0.551 0-0.998 0.445-1 0.997l-0.031 9.989h-4.989v-15.777c0-0.082-0.013-0.162-0.032-0.239l11.055-11.52 10.982 11.507c-0.021 0.081-0.036 0.165-0.036 0.252z"
     id="path2" />
  <path
     style="fill:#ffffff;stroke-width:0.995025"
     d="m 95.024876,798.57207 c -6.865449,-1.67138 -13.310808,-6.961 -17.052783,-13.99496 -1.783214,-3.35199 -1.871347,-10.62473 -2.350202,-193.94147 L 75.124378,400.17677 56.849951,419.20963 C 36.558794,440.34292 33.33583,442.6355 23.970137,442.59791 14.391181,442.55946 6.3305001,437.5875 1.6909044,428.85572 -1.2415778,423.33675 -1.231664,413.47558 1.7119914,407.88066 2.9574091,405.51353 83.692005,320.6251 195.36147,204.26782 367.3169,25.093824 387.36741,4.5246921 391.69623,2.8548237 397.81978,0.49262672 404.16422,0.49027679 410.2758,2.847942 414.59205,4.5130242 434.40303,24.938829 605.70338,204.34048 747.12371,352.449 796.856,405.13586 798.37411,408.45771 c 2.75004,6.01753 2.69444,14.98346 -0.12693,20.46588 -5.04315,9.79975 -16.32896,15.55513 -26.30638,13.41535 -2.81972,-0.60472 -6.52793,-1.96547 -8.2405,-3.0239 -1.71256,-1.05841 -11.14871,-10.29989 -20.96922,-20.53659 l -17.85546,-18.61219 -0.49751,190.46413 c -0.47886,183.32186 -0.56699,190.59473 -2.3502,193.94672 -2.58618,4.86135 -7.38573,9.73984 -12.07766,12.27625 l -3.9801,2.15162 h -93.53234 -93.53234 l -5.22819,-2.89681 c -2.8755,-1.59323 -6.36299,-4.38461 -7.74999,-6.20305 -5.69777,-7.47016 -5.42978,-0.64485 -5.42978,-138.28893 V 524.87562 h -100 -100 l -0.13422,41.54229 c -0.0738,22.84826 -0.40964,80.49751 -0.74627,128.10945 l -0.61204,86.56717 -2.36843,4.81076 c -2.75807,5.60223 -9.48665,10.9666 -15.73388,12.54387 -4.78909,1.20914 -180.937556,1.32561 -185.877794,0.12291 z M 250.97176,622.63682 c 0.4691,-115.40066 0.66874,-127.47627 2.16644,-131.04097 2.60999,-6.21205 6.27866,-10.31518 11.84887,-13.25215 l 5.16218,-2.72181 h 130.34826 130.34826 l 5.34353,2.95958 c 5.72441,3.17053 9.10283,6.89805 11.54111,12.73366 1.34083,3.20907 1.52332,18.90754 1.52332,131.04097 v 127.39514 h 62.68657 62.68657 l 0.20353,-197.01492 c 0.11194,-108.35821 0.22388,-198.80878 0.24875,-201.00126 0.0449,-3.95364 -1.0757,-5.16102 -136.67302,-147.26368 C 463.21109,125.66884 401.38573,61.19403 401.01644,61.19403 c -0.3693,0 -62.65206,64.58955 -138.40613,143.53234 l -137.73469,143.53234 0.26534,200.74627 0.26533,200.74626 h 62.52438 62.52437 z"
     id="path183"
     transform="scale(0.04)" />
</svg>
