<?xml version="1.0" encoding="UTF-8" standalone="no"?>
<!-- Uploaded to: SVG Repo, www.svgrepo.com, Generator: SVG Repo Mixer Tools -->

<svg
   width="800px"
   height="800px"
   viewBox="0 0 512 512"
   version="1.1"
   id="svg196"
   sodipodi:docname="project.svg"
   inkscape:version="1.2.2 (732a01da63, 2022-12-09)"
   xmlns:inkscape="http://www.inkscape.org/namespaces/inkscape"
   xmlns:sodipodi="http://sodipodi.sourceforge.net/DTD/sodipodi-0.dtd"
   xmlns="http://www.w3.org/2000/svg"
   xmlns:svg="http://www.w3.org/2000/svg">
  <defs
     id="defs200" />
  <sodipodi:namedview
     id="namedview198"
     pagecolor="#505050"
     bordercolor="#0000000"
     borderopacity="1"
     inkscape:showpageshadow="0"
     inkscape:pageopacity="0"
     inkscape:pagecheckerboard="0"
     inkscape:deskcolor="#505050"
     showgrid="false"
     inkscape:zoom="1.005"
     inkscape:cx="400"
     inkscape:cy="400"
     inkscape:window-width="1920"
     inkscape:window-height="991"
     inkscape:window-x="-9"
     inkscape:window-y="-9"
     inkscape:window-maximized="1"
     inkscape:current-layer="svg196" />
  <title
     id="title190">project</title>
  <g
     id="Page-1"
     stroke="none"
     stroke-width="1"
     fill="none"
     fill-rule="evenodd">
    <g
       id="Combined-Shape"
       fill="#000000"
       transform="translate(64.000000, 34.346667)">
      <path
         d="M192,7.10542736e-15 L384,110.851252 L384,332.553755 L192,443.405007 L1.42108547e-14,332.553755 L1.42108547e-14,110.851252 L192,7.10542736e-15 Z M42.666,157.654 L42.6666667,307.920144 L170.666,381.82 L170.666,231.555 L42.666,157.654 Z M341.333,157.655 L213.333,231.555 L213.333,381.82 L341.333333,307.920144 L341.333,157.655 Z M192,49.267223 L66.1333333,121.936377 L192,194.605531 L317.866667,121.936377 L192,49.267223 Z"
         id="path192" />
    </g>
  </g>
  <path
     style="fill:#000000;stroke-width:0.995025"
     d="m 250.03479,659.40121 -149.4677,-86.26688 0.21397,-173.09132 0.21396,-173.09132 149.51299,-86.32211 149.51299,-86.322124 149.49199,86.314414 149.49199,86.31442 0.21658,173.09901 0.21659,173.09903 -149.22187,86.06965 c -82.07202,47.33831 -149.55755,86.15841 -149.96783,86.26689 -0.41028,0.10848 -68.00643,-38.62286 -150.21366,-86.06966 z M 367.1343,532.58706 367.1044,414.92537 267.9263,357.71144 c -54.54795,-31.46766 -99.75839,-57.3587 -100.46763,-57.53564 -1.05072,-0.26214 -1.28335,21.48233 -1.25614,117.41294 l 0.0334,117.73464 99.22034,57.35719 c 54.57118,31.54645 99.78004,57.40466 100.46412,57.46268 0.98876,0.0839 1.23765,-24.01934 1.2139,-117.55619 z m 167.47111,59.95025 99.17178,-57.21393 0.0269,-117.76815 c 0.0255,-111.75424 -0.0621,-117.73447 -1.71447,-117.10888 -0.95771,0.36259 -46.16602,26.2687 -100.4629,57.56913 l -98.72166,56.90989 -0.0346,117.73465 c -0.0284,96.36665 0.20113,117.67627 1.2643,117.41294 0.71441,-0.17694 45.92622,-26.06798 100.4707,-57.53565 z M 499.0726,301.24378 c 53.84438,-31.05721 97.90864,-56.69797 97.92059,-56.97945 0.0119,-0.28148 -44.30155,-26.10688 -98.47444,-57.38976 l -98.49619,-56.87798 -98.51874,56.87997 c -54.18531,31.28398 -98.50783,57.10938 -98.49449,57.38977 0.039,0.81943 195.3622,113.35086 196.83127,113.40028 0.73322,0.0247 45.38762,-25.36561 99.232,-56.42283 z"
     id="path202"
     transform="scale(0.64)" />
</svg>
