<?xml version="1.0" encoding="UTF-8" standalone="no"?>
<!-- Uploaded to: SVG Repo, www.svgrepo.com, Generator: SVG Repo Mixer Tools -->

<svg
   width="800px"
   height="800px"
   viewBox="0 0 24 24"
   fill="none"
   version="1.1"
   id="svg20"
   sodipodi:docname="stack.svg"
   inkscape:version="1.2.2 (732a01da63, 2022-12-09)"
   xmlns:inkscape="http://www.inkscape.org/namespaces/inkscape"
   xmlns:sodipodi="http://sodipodi.sourceforge.net/DTD/sodipodi-0.dtd"
   xmlns="http://www.w3.org/2000/svg"
   xmlns:svg="http://www.w3.org/2000/svg">
  <defs
     id="defs24" />
  <sodipodi:namedview
     id="namedview22"
     pagecolor="#505050"
     bordercolor="#eeeeee"
     borderopacity="1"
     inkscape:showpageshadow="0"
     inkscape:pageopacity="0"
     inkscape:pagecheckerboard="0"
     inkscape:deskcolor="#505050"
     showgrid="false"
     inkscape:zoom="1.005"
     inkscape:cx="400"
     inkscape:cy="400"
     inkscape:window-width="1920"
     inkscape:window-height="991"
     inkscape:window-x="-9"
     inkscape:window-y="-9"
     inkscape:window-maximized="1"
     inkscape:current-layer="svg20" />
  <path
     fill-rule="evenodd"
     clip-rule="evenodd"
     d="M19 8.04144L12 3.99999L5 8.04145V9.7735L12 13.8149L19 9.7735V8.04144ZM6.5 8.90747L12 5.73204L17.5 8.90747L12 12.0829L6.5 8.90747Z"
     fill="#1F2328"
     id="path14" />
  <path
     d="M19 14.1789V15.911L12 19.9524L5 15.911V14.1789L12 18.2204L19 14.1789Z"
     fill="#1F2328"
     id="path16" />
  <path
     d="M19 11.1765V12.9086L12 16.95L5 12.9086V11.1765L12 15.218L19 11.1765Z"
     fill="#1F2328"
     id="path18" />
  <path
     style="fill:#ffffff;stroke-width:0.995025"
     d="M 282.83582,392.29187 167.16418,325.45691 V 296.9144 268.37189 l 116.49746,-67.2616 116.49746,-67.26161 11.61199,6.78307 c 6.3866,3.73069 17.88065,10.39836 25.54234,14.81704 21.56149,12.43501 82.05306,47.34914 97.01493,55.99444 7.38806,4.26898 29.10448,16.80239 48.2587,27.85202 19.15423,11.04964 38.29602,22.10688 42.53732,24.57167 l 7.71144,4.48142 v 28.63925 28.63926 l -15.67164,8.97953 c -8.6194,4.93874 -35.59702,20.49007 -59.95025,34.5585 -24.35323,14.06841 -63.08458,36.44269 -86.06965,49.7206 -68.33126,39.4733 -69.82932,40.32007 -71.26108,40.27993 -0.75665,-0.0212 -53.42798,-30.11431 -117.04738,-66.87354 z M 491.14267,350.7547 c 50.23042,-29.00034 91.6499,-53.06751 92.04328,-53.48259 0.39338,-0.41509 -40.65384,-24.61073 -91.21605,-53.7681 l -91.9313,-53.0134 -45.04417,26.00742 c -24.7743,14.30408 -63.85015,36.8683 -86.83523,50.14272 -22.98507,13.2744 -44.18282,25.48877 -47.10611,27.14302 l -5.31507,3.00773 9.29517,5.45067 c 5.11234,2.99787 16.90711,9.83213 26.21059,15.18725 15.37223,8.8483 47.54922,27.4283 78.60697,45.39011 10.06435,5.82058 69.33181,40.25922 69.80781,40.56334 0.0859,0.0548 41.25369,-23.62784 91.48411,-52.62817 z"
     id="path199"
     transform="scale(0.03)" />
  <path
     style="fill:#ffffff;stroke-width:0.995025"
     d="M 283.63041,497.19675 167.16418,429.95973 v -28.19895 -28.19896 l 2.23881,1.16915 c 1.23134,0.64302 7.38805,4.1677 13.68159,7.83261 6.29353,3.66491 27.78607,16.08882 47.76119,27.60868 19.97513,11.51987 54.9005,31.67462 77.61194,44.78834 22.71144,13.11372 48.90547,28.22683 58.20896,33.58469 9.30348,5.35785 20.60072,11.9048 25.10499,14.54875 l 8.18957,4.8072 112.20844,-64.76602 c 61.71464,-35.6213 114.11142,-65.87446 116.4373,-67.22924 l 4.22885,-2.46324 v 28.30335 28.30335 l -35.07463,20.23315 c -19.29104,11.12823 -50.2985,29.03528 -68.90547,39.79344 -18.60696,10.75816 -44.35323,25.62199 -57.21393,33.03074 -12.8607,7.40875 -34.21955,19.73818 -47.46412,27.39872 l -24.08102,13.92828 z"
     id="path201"
     transform="scale(0.03)" />
  <path
     style="fill:#ffffff;stroke-width:0.995025"
     d="m 283.58209,597.25574 -115.9204,-66.92111 -0.26425,-28.10264 c -0.14534,-15.45645 0.0374,-28.10264 0.40604,-28.10264 0.36867,0 6.75624,3.5388 14.1946,7.86401 12.17732,7.08077 50.56542,29.25738 83.67356,48.3378 28.44155,16.39103 99.26584,57.29635 115.74525,66.8499 9.7544,5.6549 18.11822,10.28163 18.58626,10.28163 0.46804,0 52.81468,-30 116.32587,-66.66667 63.51119,-36.66667 115.71404,-66.66667 116.00634,-66.66667 0.2923,0 0.41254,12.64016 0.2672,28.08924 l -0.26425,28.08924 -20.39801,11.81827 c -28.22439,16.35274 -73.39504,42.44566 -149.25373,86.21672 -18.33334,10.57847 -39.76554,22.96919 -47.62711,27.53493 -7.86157,4.56574 -14.57799,8.30085 -14.92537,8.30023 -0.34738,-6.2e-4 -52.79578,-30.11562 -116.552,-66.92224 z"
     id="path203"
     transform="scale(0.03)" />
</svg>
